<svg xmlns="http://www.w3.org/2000/svg" shape-rendering="geometricPrecision" text-rendering="geometricPrecision" image-rendering="optimizeQuality" fill-rule="evenodd" clip-rule="evenodd" viewBox="0 0 465 512.08"><path fill="#0866FF" d="M439.87 0H25.13C11.31 0 0 11.31 0 25.13v461.82c0 13.82 11.31 25.13 25.13 25.13h414.74c13.82 0 25.13-11.31 25.13-25.13V25.13C465 11.31 453.69 0 439.87 0z"/><path fill="#fff" fill-rule="nonzero" d="M95.91 420.99l15.34-1.08c.33 2.8 1.02 4.94 2.04 6.39 1.67 2.38 4.04 3.58 7.13 3.58 2.31 0 4.08-.61 5.33-1.83 1.25-1.22 1.87-2.64 1.87-4.24 0-1.53-.58-2.9-1.76-4.11-1.19-1.21-3.94-2.34-8.26-3.42-7.09-1.79-12.13-4.18-15.15-7.16-3.05-2.96-4.57-6.75-4.57-11.37 0-3.02.78-5.87 2.34-8.57 1.56-2.7 3.9-4.82 7.03-6.35 3.13-1.54 7.41-2.31 12.86-2.31 6.68 0 11.77 1.4 15.28 4.21s5.59 7.27 6.26 13.4l-15.2 1.01c-.4-2.68-1.25-4.63-2.54-5.84-1.3-1.22-3.1-1.82-5.37-1.82-1.88 0-3.3.45-4.25 1.34-.95.9-1.43 2-1.43 3.29 0 .93.39 1.77 1.16 2.52.74.79 2.54 1.5 5.39 2.17 7.07 1.72 12.12 3.46 15.17 5.22 3.05 1.76 5.28 3.93 6.67 6.54 1.39 2.59 2.08 5.51 2.08 8.73 0 3.78-.92 7.27-2.78 10.47-1.86 3.18-4.44 5.61-7.78 7.26-3.32 1.65-7.51 2.47-12.58 2.47-8.89 0-15.05-1.93-18.47-5.79-3.42-3.86-5.36-8.76-5.81-14.71zm54.6-39.48h16.15v20.6h17.69v-20.6h16.22v58.99h-16.22v-23.89h-17.69v23.89h-16.15v-58.99zm93 49.27H225.2l-2.64 9.72h-16.5l19.69-58.99h17.7l19.61 58.99h-16.93l-2.62-9.72zm-3.42-12.77l-5.71-21.2-5.74 21.2h11.45zm28.3 22.49v-58.99h26.94c5 0 8.82.49 11.45 1.45 2.64.97 4.78 2.76 6.39 5.37 1.63 2.62 2.43 5.83 2.43 9.59 0 3.27-.63 6.09-1.87 8.47-1.23 2.39-2.93 4.32-5.11 5.8-1.37.93-3.28 1.71-5.68 2.33 1.93.73 3.33 1.45 4.21 2.17.58.48 1.45 1.53 2.58 3.1 1.12 1.58 1.86 2.82 2.25 3.67l7.85 17.04h-18.26l-8.64-17.98c-1.11-2.33-2.06-3.87-2.92-4.55-1.15-.92-2.5-1.36-3.97-1.36h-1.42v23.89h-16.23zm16.23-35.01h6.83c.73 0 2.16-.3 4.29-.81 1.06-.26 1.94-.86 2.61-1.86.68-1 1.03-2.14 1.03-3.43 0-1.91-.55-3.38-1.61-4.4-1.07-1.02-3.09-1.54-6.04-1.54h-7.11v12.04zm40.41-23.98h43.25v12.6h-27.03v9.4h25.06v12.03h-25.06v11.62h27.84v13.34h-44.06v-58.99z"/><path fill="#0653CF" fill-rule="nonzero" d="M465 324.23H0v-14.29h465z"/><path fill="#fff" fill-rule="nonzero" d="M336.48 158.06c0-57.43-46.55-103.98-103.98-103.98-57.42 0-103.98 46.55-103.98 103.98 0 48.76 33.57 89.68 78.86 100.91v-69.14h-21.44v-31.77h21.44v-13.69c0-35.39 16.02-51.8 50.76-51.8 6.59 0 17.96 1.29 22.61 2.59v28.8c-2.46-.26-6.72-.39-12.02-.39-17.04 0-23.63 6.46-23.63 23.25v11.24h33.96l-5.83 31.77H245.1v71.44c51.48-6.22 91.38-50.05 91.38-103.21z"/></svg>